<svg xmlns="http://www.w3.org/2000/svg" xmlns:xlink="http://www.w3.org/1999/xlink" width="20" height="20" viewBox="15 0 28 21">
  <defs>
    <clipPath id="clip-path">
      <path id="Path_87868" data-name="Path 87868" d="M4.57-.808h7.311V-3.566A3.673,3.673,0,0,0,8.225-7.242,3.673,3.673,0,0,0,4.57-3.566ZM16.45.571V8.844a1.375,1.375,0,0,1-1.371,1.379H1.371A1.375,1.375,0,0,1,0,8.844V.571A1.375,1.375,0,0,1,1.371-.808h.457V-3.566A6.442,6.442,0,0,1,8.225-10a6.442,6.442,0,0,1,6.4,6.434V-.808h.457A1.375,1.375,0,0,1,16.45.571Z" transform="translate(0 10)" fill="#bf5700"/>
    </clipPath>
  </defs>
  <g id="Component_92_1" data-name="Component 92 – 1" transform="translate(0.5 0.5)">
    <path id="line" d="M.5,0V24" transform="translate(-0.5)" fill="none" stroke="rgba(255,255,255,0.2)" stroke-linecap="square" stroke-miterlimit="10" stroke-width="1"/>
    <g id="Group_4903" data-name="Group 4903" transform="translate(21.528 3)" clip-path="url(#clip-path)">
      <path id="Path_87867" data-name="Path 87867" d="M-5-15H32.013V25.445H-5Z" transform="translate(-5.281 4.889)" fill="#bf5700"/>
    </g>
  </g>
</svg>
